<svg viewBox="0 0 498.4 324.1" version="1.1" xmlns:xlink="http://www.w3.org/1999/xlink" xmlns="http://www.w3.org/2000/svg" id="Layer_2">
  
  <defs>
    <style>
      .st0 {
        fill: none;
      }

      .st1 {
        fill: #66adab;
      }

      .st2 {
        clip-path: url(#clippath);
      }
    </style>
    <clipPath id="clippath">
      <rect height="324.1" width="498.4" class="st0"></rect>
    </clipPath>
  </defs>
  <g class="st2">
    <g id="Layer_1-2">
      <g>
        <path d="M156.9,92.9c-40,0-61.8-14.8-83-29.1-14.6-9.9-29.7-20.1-50.8-25.2-3.1-.7-11-1.2-18-1.6-11.4-.7-14.4-1-15.9-1.8-1.1-.6-2.3-1.3-2.7-10.7-.3-6.8.2-7.9,1.5-8.8l.7-.5h.9c2.2-.1,4.3-.2,6.4-.2,24.9,0,47.3,6.7,72.5,21.6,7.7,4.6,14.3,8.9,20.2,12.7,21.7,14.1,34.8,22.7,66.9,22.7s4.8,0,7.3-.1c33.4-1.2,54.8-16.2,77.5-31.9,24-16.7,48.8-34,88.8-34s11.6.4,17.7,1.1c30.5,3.5,51.4,16.6,71.7,29.3,22.2,13.8,43.1,26.9,75.1,26.9s15.4-.7,23.6-2.2c25-4.4,42-16.8,60-29.9,23.1-16.8,47.1-34.2,89.2-34.2h.2c40.4,0,63.2,15,85.3,29.5,15.8,10.4,30.7,20.2,51.9,25,3,.7,11.3,1.1,18,1.5,10.4.6,13.2.8,14.5,1.5,1.4.7,1.9,2,2.4,5.9.3,2.5.4,5.1.2,7.2-.1,1.5-.4,5.9-3.8,7-1.3.4-3,.6-5.2.6-9.1,0-25.5-3.4-30.8-4.8-6.7-1.8-14.9-4.5-21.4-7l-4-1.6h0c-15.4-6.5-26.9-14.3-37.2-21.1-18.4-12.3-34.3-22.9-65.7-22.9s-8.9.2-13.6.6c-30.8,2.6-50.9,16.6-72.2,31.5-23.9,16.7-48.7,34-89.5,34-4.5,0-9.3-.2-14.1-.6-31.7-2.9-53.7-16.6-75-29.8-22.3-13.9-43.3-27-74-27s-20.1,1.3-31.2,4.1c-22.9,5.7-38.1,16.9-54.2,28.7-21.8,16.1-44.3,32.7-86.9,33.6-1.1,0-2.2,0-3.2,0Z" class="st1"></path>
        <path d="M161.8,316c-11.3,0-22.1-1.2-31.4-3.4-20.1-4.9-37.4-15.9-54.1-26.6-22.2-14.2-43.1-27.6-69.9-27.6s-6.9.2-10.3.7l-3.5.4.5-22.2,3.3.4c4.2.6,8.7.8,13,1,6.5.3,13.3.7,19.9,2.2,25.4,5.8,43.2,17.3,60.5,28.4,21,13.5,40.8,26.2,71.6,26.2s17.7-1,27.4-2.9c24.4-4.9,40.7-16.8,58-29.4,22.4-16.3,45.5-33.2,87.1-34,1,0,2,0,2.9,0,38.4,0,62.2,15,85.3,29.5,19.2,12.1,37.4,23.5,63.5,26.7,5.3.7,10.6,1,15.6,1,34.7,0,57-15.5,80.6-31.8,22.3-15.5,45.4-31.4,79.7-34,4.9-.4,9.6-.5,14.1-.5,36.9,0,56.3,12.5,78.9,27,10.5,6.8,21.4,13.8,35.3,20.6h0l.6.3c9.1,4.4,10.6,4.9,20.3,6.6,9.1,1.6,18.7,2.4,31.2,2.6h2.9s.1,2.9.1,2.9c.3,9,.5,13.2-2.1,15.8-1.9,1.9-4.5,2.2-6.8,2.2s-3.6-.1-6.1-.3c-1.1,0-2.4-.2-3.7-.3-31.7-2.1-54-15.9-75.5-29.2-22.9-14.2-44.5-27.6-76.7-27.6s-13.9.6-21.2,1.8c-24.6,4.1-42.3,16.7-61,30-21.3,15.2-43.3,30.8-76.5,33.8-5.9.5-11.5.8-16.8.8-36.3,0-55.7-12.5-78.2-26.9-10.3-6.6-21.9-14.1-36.3-21.1-8.9-4.3-10.4-4.8-20.3-6.6-8.7-1.6-18.2-2.5-27.2-2.5s-24.1,1.6-34,4.5c-17.8,5.3-32.5,16.4-46.8,27.1-12.3,9.3-25.1,18.8-40,24.9-14.8,6.1-34.5,9.5-54,9.5Z" class="st1"></path>
        <path d="M161.3,204.6c-4.6,0-9.4-.2-14.2-.7-31.1-2.9-52.4-16.5-72.9-29.7-17.9-11.5-34.7-22.3-57.1-25.6-2.1-.3-8.5-.3-13.7-.3-8.6,0-9.7,0-10.7-.5-1.8-.8-3-2.8-3-9.8,0-.7,0-6.8,1.1-9.4l.3-.8.7-.5c.9-.7,2-.8,4-.8,6.8,0,25.1,1.7,28.1,2.3,25.1,5.5,42.9,16.8,60,27.7,21.8,13.9,42.4,27,76.1,27s5.1,0,7.7-.2c32.1-1.8,53.4-16.6,76-32.2,24.2-16.7,49.2-34,88-34s12.4.4,18.8,1.3c29.9,3.9,50.7,16.8,70.8,29.3,22.3,13.9,43.4,27,75.5,27s15.1-.7,23.1-2.1c24.8-4.3,41.8-16.6,59.9-29.7,23.4-17,47.6-34.5,89.9-34.5h.6c39.9.2,62.7,15.1,84.8,29.5,16.3,10.6,31.7,20.7,53.6,25.5,2.6.6,10.5.9,16.9,1.2,10.4.4,11.8.6,12.9,1.2.8.5,3,1.8,3,11.2,0,7.9-1.6,8.9-2.6,9.4l-.9.5h-1c-2.4-.3-4.8-.5-7.1-.7-8.7-.7-16.9-1.4-26.1-3.9-6.5-1.7-14.4-4.3-21.5-6.8h0s-4.1-1.5-4.1-1.5c-17.6-6.8-30.4-15.3-41.7-22.7-18.1-12-33.7-22.3-63.3-22.3s-13.2.5-20.5,1.4c-27.8,3.6-46.1,16.8-65.4,30.8-23.2,16.8-47.3,34.2-88.8,34.2-4.4,0-9-.2-13.7-.6-31.5-2.7-52.9-16-73.7-28.9-22.7-14.1-44.2-27.4-78-27.4s-3.4,0-5.1.1c-33.2,1.3-54.5,16.1-77.1,31.8-24.2,16.8-49.3,34.2-90,34.2h0Z" class="st1"></path>
        <path d="M363.5,252.3l1.5-5.8c10.4,1.9,12.4,2.6,21.8,7.1l-2.2,5.5-21-6.9Z" class="st1"></path>
      </g>
    </g>
  </g>
</svg>